# xmcd CD database file
#
# Track frame offsets:
#	183
#	76680
#	82908
#	132633
#
# Disc length: 2212 seconds
#
# Revision: 0
# Processed by: cddbd v1.5.2PL0 Copyright (c) Steve Scherf et al.
# Submitted via: CDex 1.78
#
DISCID=2408a204
DTITLE=Anup Jalota - Hanuman Chalisa
DYEAR=1991
DGENRE=India devotional
TTITLE0=Shree Hanuman Chalisa
TTITLE1=Jai Pawanputra Ki Jai
TTITLE2=Shree Sankatmochan Hanuman Ashtak
TTITLE3=Shree Hanumanji Ki Aarti
EXTD=YEAR: 1991
EXTT0=
EXTT1=
EXTT2=
EXTT3=
PLAYORDER=
